<svg width="50" height="50" viewBox="0 0 50 50" fill="none" xmlns="http://www.w3.org/2000/svg">
<g clip-path="url(#clip0_1_17)">
<path d="M24.8097 40.948L17.0954 41.6166L17.764 33.9023L33.8097 17.9594C34.0492 17.7145 34.3352 17.5199 34.6509 17.387C34.9667 17.2542 35.3057 17.1858 35.6483 17.1858C35.9908 17.1858 36.3299 17.2542 36.6457 17.387C36.9614 17.5199 37.2474 17.7145 37.4869 17.9594L40.7526 21.2509C40.9933 21.4901 41.1843 21.7745 41.3147 22.0879C41.445 22.4012 41.5121 22.7372 41.5121 23.0766C41.5121 23.4159 41.445 23.7519 41.3147 24.0653C41.1843 24.3786 40.9933 24.6631 40.7526 24.9023L24.8097 40.948ZM9.16515 17.2137C8.26258 17.0569 8.26258 15.7609 9.16515 15.604C10.7632 15.3259 12.2423 14.5781 13.4138 13.4561C14.5853 12.3341 15.3961 10.8886 15.7429 9.304L15.7969 9.05457C15.9923 8.16486 17.2626 8.15714 17.4683 9.04943L17.5326 9.33743C17.8921 10.915 18.7097 12.3512 19.8827 13.4656C21.0557 14.5801 22.5318 15.3231 24.1257 15.6014C25.0334 15.7557 25.0334 17.0594 24.1257 17.2189C22.5317 17.4965 21.0552 18.239 19.8818 19.353C18.7083 20.467 17.8901 21.9028 17.53 23.4803L17.4631 23.7709C17.26 24.6606 15.9897 24.6554 15.7943 23.7631L15.7429 23.5137C15.3957 21.9284 14.5842 20.4824 13.4117 19.3603C12.2392 18.2383 10.759 17.4909 9.16001 17.2137H9.16515Z" stroke="#FCEA4E" stroke-width="2" stroke-linecap="round" stroke-linejoin="round"/>
</g>
<defs>
<clipPath id="clip0_1_17">
<rect width="36" height="36" fill="white" transform="translate(7 7)"/>
</clipPath>
</defs>
</svg>
