<svg width="50" height="50" viewBox="0 0 50 50" fill="none" xmlns="http://www.w3.org/2000/svg">
<path d="M23.7519 35.2071L25 37.0792L26.2481 35.2071L31.3184 27.6016C34.7902 28.8395 37.8303 31.0736 40.0512 34.0354C42.1897 36.8874 43.4677 40.2795 43.7519 43.8125H6.24773C6.5312 40.2792 7.8089 36.8867 9.94759 34.0345C12.1686 31.0725 15.2092 28.8386 18.6815 27.6014L23.7519 35.2071ZM33.6562 14.8438C33.6562 17.1395 32.7443 19.3413 31.1209 20.9646C29.4975 22.588 27.2958 23.5 25 23.5C22.7042 23.5 20.5025 22.588 18.8791 20.9646C17.2557 19.3413 16.3438 17.1395 16.3438 14.8438C16.3438 12.548 17.2557 10.3462 18.8791 8.72286C20.5025 7.09949 22.7042 6.1875 25 6.1875C27.2958 6.1875 29.4975 7.09949 31.1209 8.72286C32.7443 10.3462 33.6562 12.548 33.6562 14.8438Z" stroke="#FCEA4E" stroke-width="3"/>
</svg>
