<svg width="67" height="15" viewBox="0 0 67 15" fill="none" xmlns="http://www.w3.org/2000/svg">
<path d="M0.660511 12V3.27273H6.74574V4.9858H2.76989V6.77557H6.43466V8.4929H2.76989V10.2869H6.74574V12H0.660511ZM8.06676 12V3.27273H11.6719C12.3253 3.27273 12.8892 3.40057 13.3636 3.65625C13.8409 3.90909 14.2088 4.26278 14.4673 4.71733C14.7259 5.16903 14.8551 5.6946 14.8551 6.29403C14.8551 6.89631 14.723 7.4233 14.4588 7.875C14.1974 8.32386 13.8239 8.67187 13.3381 8.91903C12.8523 9.16619 12.2756 9.28977 11.608 9.28977H9.38352V7.62784H11.2159C11.5341 7.62784 11.7997 7.57244 12.0128 7.46165C12.2287 7.35085 12.392 7.19602 12.5028 6.99716C12.6136 6.79545 12.669 6.56108 12.669 6.29403C12.669 6.02415 12.6136 5.79119 12.5028 5.59517C12.392 5.39631 12.2287 5.2429 12.0128 5.13494C11.7969 5.02699 11.5313 4.97301 11.2159 4.97301H10.1761V12H8.06676ZM18.0043 3.27273V12H15.8949V3.27273H18.0043ZM27.2504 6.43466H25.1197C25.0913 6.21591 25.033 6.01847 24.945 5.84233C24.8569 5.66619 24.7404 5.51562 24.5955 5.39062C24.4506 5.26562 24.2788 5.17045 24.0799 5.10511C23.8839 5.03693 23.6665 5.00284 23.4279 5.00284C23.0046 5.00284 22.6396 5.10653 22.3327 5.31392C22.0288 5.52131 21.7944 5.82102 21.6296 6.21307C21.4677 6.60511 21.3867 7.07955 21.3867 7.63636C21.3867 8.21591 21.4691 8.7017 21.6339 9.09375C21.8015 9.48295 22.0359 9.77699 22.337 9.97585C22.641 10.1719 23.0004 10.2699 23.4151 10.2699C23.6481 10.2699 23.8597 10.2401 24.0501 10.1804C24.2433 10.1207 24.4123 10.0341 24.5572 9.92045C24.7049 9.80398 24.8256 9.66335 24.9194 9.49858C25.016 9.33097 25.0827 9.14205 25.1197 8.93182L27.2504 8.9446C27.2134 9.33097 27.1012 9.71165 26.9137 10.0866C26.729 10.4616 26.4748 10.804 26.1509 11.1136C25.8271 11.4205 25.4322 11.6648 24.9663 11.8466C24.5032 12.0284 23.9719 12.1193 23.3725 12.1193C22.5827 12.1193 21.8754 11.946 21.2504 11.5994C20.6282 11.25 20.1367 10.7415 19.7759 10.0739C19.4151 9.40625 19.2347 8.59375 19.2347 7.63636C19.2347 6.67614 19.418 5.86222 19.7844 5.1946C20.1509 4.52699 20.6467 4.01989 21.2717 3.6733C21.8967 3.3267 22.5969 3.15341 23.3725 3.15341C23.9009 3.15341 24.3896 3.22727 24.8384 3.375C25.2873 3.51989 25.6822 3.73295 26.0231 4.0142C26.364 4.29261 26.641 4.63494 26.854 5.04119C27.0671 5.44744 27.1992 5.91193 27.2504 6.43466ZM31.0355 12V3.27273H34.6747C35.3281 3.27273 35.875 3.36506 36.3153 3.54972C36.7585 3.73437 37.0909 3.9929 37.3125 4.32528C37.5369 4.65767 37.6491 5.04261 37.6491 5.48011C37.6491 5.8125 37.5795 6.10938 37.4403 6.37074C37.3011 6.62926 37.1094 6.84375 36.8651 7.0142C36.6207 7.18466 36.3381 7.30398 36.017 7.37216V7.45739C36.3693 7.47443 36.6946 7.5696 36.9929 7.7429C37.294 7.91619 37.5355 8.15767 37.7173 8.46733C37.8991 8.77415 37.9901 9.13778 37.9901 9.55824C37.9901 10.027 37.8707 10.446 37.6321 10.8153C37.3935 11.1818 37.0483 11.4716 36.5966 11.6847C36.1449 11.8949 35.5966 12 34.9517 12H31.0355ZM33.1449 10.2997H34.4489C34.9063 10.2997 35.2429 10.2131 35.4588 10.0398C35.6776 9.86648 35.7869 9.625 35.7869 9.31534C35.7869 9.09091 35.7344 8.89773 35.6293 8.7358C35.5241 8.57102 35.375 8.4446 35.1818 8.35653C34.9886 8.26562 34.7571 8.22017 34.4872 8.22017H33.1449V10.2997ZM33.1449 6.8608H34.3125C34.5426 6.8608 34.7472 6.82244 34.9261 6.74574C35.1051 6.66903 35.2443 6.55824 35.3438 6.41335C35.446 6.26847 35.4972 6.09375 35.4972 5.8892C35.4972 5.59659 35.3935 5.36648 35.1861 5.19886C34.9787 5.03125 34.6989 4.94744 34.3466 4.94744H33.1449V6.8608ZM44.2841 3.27273H46.3892V8.90199C46.3892 9.55256 46.2344 10.1193 45.9247 10.6023C45.6151 11.0824 45.1832 11.4545 44.6293 11.7188C44.0753 11.9801 43.4318 12.1108 42.6989 12.1108C41.9574 12.1108 41.3097 11.9801 40.7557 11.7188C40.2017 11.4545 39.7713 11.0824 39.4645 10.6023C39.1577 10.1193 39.0043 9.55256 39.0043 8.90199V3.27273H41.1136V8.71875C41.1136 9.01989 41.179 9.28835 41.3097 9.52415C41.4432 9.75994 41.6293 9.9446 41.8679 10.0781C42.1065 10.2116 42.3835 10.2784 42.6989 10.2784C43.0142 10.2784 43.2898 10.2116 43.5256 10.0781C43.7642 9.9446 43.9503 9.75994 44.0838 9.52415C44.2173 9.28835 44.2841 9.01989 44.2841 8.71875V3.27273ZM49.8207 3.27273V12H47.7113V3.27273H49.8207ZM51.1449 12V3.27273H53.2543V10.2869H56.8849V12H51.1449ZM61.2028 12H57.9769V3.27273H61.1985C62.0877 3.27273 62.8533 3.44744 63.4954 3.79688C64.1403 4.14347 64.6374 4.64347 64.9869 5.29688C65.3363 5.94744 65.511 6.72585 65.511 7.6321C65.511 8.54119 65.3363 9.32244 64.9869 9.97585C64.6403 10.6293 64.1445 11.1307 63.4996 11.4801C62.8548 11.8267 62.0891 12 61.2028 12ZM60.0863 10.2017H61.1218C61.6104 10.2017 62.0238 10.1193 62.3619 9.95455C62.7028 9.78693 62.9599 9.51562 63.1332 9.14062C63.3093 8.76278 63.3974 8.25994 63.3974 7.6321C63.3974 7.00426 63.3093 6.50426 63.1332 6.1321C62.957 5.7571 62.6971 5.48722 62.3533 5.32244C62.0124 5.15483 61.592 5.07102 61.092 5.07102H60.0863V10.2017Z" fill="white"/>
</svg>
