<svg width="50" height="50" viewBox="0 0 50 50" fill="none" xmlns="http://www.w3.org/2000/svg">
<path fill-rule="evenodd" clip-rule="evenodd" d="M25 42.1875C29.5584 42.1875 33.9301 40.3767 37.1534 37.1534C40.3767 33.9301 42.1875 29.5584 42.1875 25C42.1875 20.4416 40.3767 16.0699 37.1534 12.8466C33.9301 9.62332 29.5584 7.8125 25 7.8125C20.4416 7.8125 16.0699 9.62332 12.8466 12.8466C9.62332 16.0699 7.8125 20.4416 7.8125 25C7.8125 29.5584 9.62332 33.9301 12.8466 37.1534C16.0699 40.3767 20.4416 42.1875 25 42.1875ZM25 46.875C30.8016 46.875 36.3656 44.5703 40.468 40.468C44.5703 36.3656 46.875 30.8016 46.875 25C46.875 19.1984 44.5703 13.6344 40.468 9.53204C36.3656 5.42968 30.8016 3.125 25 3.125C19.1984 3.125 13.6344 5.42968 9.53204 9.53204C5.42968 13.6344 3.125 19.1984 3.125 25C3.125 30.8016 5.42968 36.3656 9.53204 40.468C13.6344 44.5703 19.1984 46.875 25 46.875ZM14.8438 28.9062C14.8438 28.2846 15.0907 27.6885 15.5302 27.249C15.9698 26.8094 16.5659 26.5625 17.1875 26.5625H32.8125C33.4341 26.5625 34.0302 26.8094 34.4698 27.249C34.9093 27.6885 35.1562 28.2846 35.1562 28.9062C35.1562 31.05 33.8125 33.0281 32.1125 34.3625C30.3312 35.7594 27.8687 36.7188 25 36.7188C22.1313 36.7188 19.6687 35.7594 17.8875 34.3625C16.1906 33.0281 14.8438 31.05 14.8438 28.9062ZM31.25 23.4375C30.6284 23.4375 30.0323 23.1906 29.5927 22.751C29.1532 22.3115 28.9062 21.7154 28.9062 21.0938V17.9688C28.9062 17.3471 29.1532 16.751 29.5927 16.3115C30.0323 15.8719 30.6284 15.625 31.25 15.625C31.8716 15.625 32.4677 15.8719 32.9073 16.3115C33.3468 16.751 33.5938 17.3471 33.5938 17.9688V21.0938C33.5938 21.7154 33.3468 22.3115 32.9073 22.751C32.4677 23.1906 31.8716 23.4375 31.25 23.4375ZM16.4062 21.0938C16.4063 21.7154 16.6532 22.3115 17.0927 22.751C17.5323 23.1906 18.1284 23.4375 18.75 23.4375C19.3716 23.4375 19.9677 23.1906 20.4073 22.751C20.8468 22.3115 21.0937 21.7154 21.0938 21.0938V17.9688C21.0937 17.3471 20.8468 16.751 20.4073 16.3115C19.9677 15.8719 19.3716 15.625 18.75 15.625C18.1284 15.625 17.5323 15.8719 17.0927 16.3115C16.6532 16.751 16.4063 17.3471 16.4062 17.9688V21.0938Z" fill="#FCEA4E"/>
</svg>
