<svg width="50" height="50" viewBox="0 0 50 50" fill="none" xmlns="http://www.w3.org/2000/svg">
<path d="M42.9062 22.9024C42.8184 22.527 42.6392 22.1791 42.3847 21.8895C42.1302 21.5999 41.8082 21.3776 41.4473 21.2422L30.8145 17.2559L33.5488 3.58399C33.6488 3.08396 33.5829 2.56497 33.3613 2.10575C33.1396 1.64652 32.7743 1.27211 32.3206 1.03931C31.8669 0.806508 31.3497 0.728015 30.8474 0.815736C30.345 0.903457 29.885 1.15261 29.5371 1.5254L7.66211 24.9629C7.39893 25.2446 7.20929 25.5869 7.11002 25.9594C7.01074 26.3319 7.00488 26.7231 7.09296 27.0984C7.18105 27.4738 7.36035 27.8215 7.61498 28.111C7.86961 28.4004 8.19171 28.6226 8.55273 28.7578L19.1855 32.7441L16.4512 46.416C16.3512 46.9161 16.4171 47.435 16.6387 47.8943C16.8604 48.3535 17.2257 48.7279 17.6794 48.9607C18.1331 49.1935 18.6503 49.272 19.1526 49.1843C19.655 49.0966 20.115 48.8474 20.4629 48.4746L42.3379 25.0371C42.6008 24.7554 42.7902 24.4133 42.8894 24.0409C42.9885 23.6685 42.9943 23.2775 42.9062 22.9024ZM22.666 39.2441L24.1738 31.709C24.2829 31.1633 24.1942 30.5966 23.9237 30.1103C23.6532 29.624 23.2184 29.2498 22.6973 29.0547L13.4766 25.5996L27.3301 10.7559L25.8223 18.291C25.7132 18.8367 25.8019 19.4034 26.0724 19.8897C26.3429 20.376 26.7777 20.7502 27.2988 20.9453L36.5234 24.4004L22.666 39.2441Z" fill="#FCEA4E"/>
</svg>
